<svg xmlns="http://www.w3.org/2000/svg" fill="#f2c300" viewBox="0 0 60 46"><path d="M6 12a4 4 0 0 0 3-6.6l2.7-2.7a1 1 0 0 0-1.4-1.4l-3 3A4 4 0 0 0 6 4c-.5 0-1 0-1.3.2l-3-3A1 1 0 0 0 .3 2.8L3 5.4A4 4 0 0 0 6 12zm2 1.6L9.9 16h.4a4 4 0 0 1 1-1.5l-1.4-1.9a6 6 0 0 1-1.7 1zm28.4-3.2A5 5 0 0 0 32 7.6h-4a5 5 0 0 0-4.4 2.7 58 58 0 0 1 12.8 0zM50.7 18H2l1 2h1.5l18.6 17.6a7 7 0 1 0 13.7 0L55.4 20H57l1-2h-7.3zM30 44a5 5 0 1 1 0-10 5 5 0 0 1 0 10zm-1-18h2v6h-2zm7 9.5a7 7 0 0 0-3-2.8v-6.8A21 21 0 0 0 44.7 22H15.3c2.1 2 6.5 3.5 11.7 3.9v6.8a7 7 0 0 0-3 2.8L7.3 20h45.1zm10.9-20a32.3 32.3 0 0 0-17-3.5c-7.2 0-14 1.4-16.8 3.4l-.6.6h35l-.6-.6zm3.3.5l1.7-2.4a6 6 0 0 1-1.7-1l-1.4 1.9c.4.4.8 1 1 1.5zM31 1a1 1 0 0 0-.3-.7A1 1 0 0 0 30 0a1 1 0 0 0-1 1v.6h2zm1 4.6l1 .1v-1c0-.6-.5-1-1-1h-4a1 1 0 0 0-1 1v1h1zM27 39a3 3 0 1 1 6 0 3 3 0 0 1-6 0zM59.7 1.3a1 1 0 0 0-1.4 0l-3 3a3 3 0 0 0-2.6 0l-3-3a1 1 0 0 0-1.4 1.4L51 5.4a4 4 0 1 0 6 0l2.7-2.7a1 1 0 0 0 0-1.4z"/></svg>
